<?xml version="1.0" encoding="UTF-8"?>
<!DOCTYPE svg PUBLIC "-//W3C//DTD SVG 1.1//EN" "http://www.w3.org/Graphics/SVG/1.1/DTD/svg11.dtd">
<svg version="1.1" xmlns="http://www.w3.org/2000/svg" xmlns:xlink="http://www.w3.org/1999/xlink" x="0" y="0" width="466.433" height="91" viewBox="0, 0, 466.433, 91">
  <g id="レイヤー_1" transform="translate(-71.371, -207.826)">
    <g>
      <path d="M525.804,213.18 C532.432,213.18 537.804,218.553 537.804,225.18 L537.804,281.473 C537.804,288.1 532.432,293.473 525.804,293.473 L373.553,293.473 C366.926,293.473 361.553,288.1 361.553,281.473 L361.553,225.18 C361.553,218.553 366.926,213.18 373.553,213.18 L525.804,213.18 z M440.339,226.451 L428.203,226.451 L428.203,253.313 Q428.203,258.493 429.498,263.229 Q430.793,267.965 433.568,271.554 Q436.343,275.143 440.783,277.289 Q445.223,279.435 451.513,279.435 Q457.581,279.435 461.984,277.4 Q466.387,275.365 469.236,271.813 Q472.085,268.261 473.454,263.525 Q474.823,258.789 474.823,253.313 L474.823,226.451 L462.687,226.451 L462.687,253.313 Q462.687,256.199 462.132,258.974 Q461.577,261.749 460.245,263.895 Q458.913,266.041 456.767,267.336 Q454.621,268.631 451.513,268.631 Q448.405,268.631 446.296,267.373 Q444.187,266.115 442.855,263.969 Q441.523,261.823 440.931,259.085 Q440.339,256.347 440.339,253.313 L440.339,226.451 z M513.451,226.451 L484.221,226.451 L484.221,278.991 L509.825,278.991 Q513.451,278.991 516.707,278.14 Q519.963,277.289 522.405,275.624 Q524.847,273.959 526.253,271.443 Q527.659,268.927 527.659,265.523 Q527.659,260.195 525.032,256.791 Q522.405,253.387 517.891,252.055 Q521.665,250.353 523.552,247.023 Q525.439,243.693 525.439,239.919 Q525.439,237.403 524.588,234.998 Q523.737,232.593 522.183,230.706 Q520.629,228.819 518.409,227.635 Q516.189,226.451 513.451,226.451 z M510.343,257.235 Q512.489,257.235 513.895,258.937 Q515.301,260.639 515.301,263.081 Q515.301,265.597 513.747,267.151 Q512.193,268.705 509.825,268.705 L496.357,268.705 L496.357,257.235 L510.343,257.235 z M508.715,236.811 Q510.639,236.811 512.008,238.217 Q513.377,239.623 513.377,242.213 Q513.377,245.025 511.823,246.357 Q510.269,247.689 508.271,247.689 L496.357,247.689 L496.357,236.811 L508.715,236.811 z M385.801,226.451 L373.665,226.451 L373.665,278.991 L385.801,278.991 L385.801,257.457 L406.743,257.457 L406.743,278.991 L418.879,278.991 L418.879,226.451 L406.743,226.451 L406.743,246.801 L385.801,246.801 L385.801,226.451 z" fill="#CE93D8"/>
      <g>
        <text transform="matrix(1, 0, 0, 1, 211.639, 253.326)">
          <tspan x="-139.268" y="25.5" font-family="Raleway-Thin" font-size="74" fill="#CE93D8">Whispe</tspan>
          <tspan x="115.366" y="25.5" font-family="Raleway-Thin" font-size="74" kerning="0" fill="#CE93D8">r</tspan>
        </text>
        <path d="M100.565,226.73 L102.193,226.73 L110.703,246.414 L119.287,226.73 L120.915,226.73 L111.517,248.19 L124.097,276.976 L146.149,226.286 L147.777,226.286 L124.911,278.826 L123.283,278.826 L110.777,250.04 L98.271,278.826 L96.643,278.826 L73.777,226.286 L75.405,226.286 L97.457,276.976 L109.963,248.19 z M185.221,278.826 L183.741,278.826 L183.741,257.44 Q183.741,241.308 173.085,241.308 Q170.421,241.308 167.831,242.344 Q165.241,243.38 163.058,245.156 Q160.875,246.932 159.247,249.337 Q157.619,251.742 156.879,254.554 L156.879,278.826 L155.399,278.826 L155.399,224.806 L156.879,224.806 L156.879,250.336 Q158.063,247.968 159.802,246.007 Q161.541,244.046 163.65,242.677 Q165.759,241.308 168.164,240.568 Q170.569,239.828 173.011,239.828 Q179.005,239.828 182.113,244.268 Q185.221,248.708 185.221,257.44 z M197.209,278.826 L197.209,240.42 L198.689,240.42 L198.689,278.826 z M197.209,230.504 L197.209,224.806 L198.689,224.806 L198.689,230.504 z M222.295,279.566 Q213.341,279.566 207.643,273.35 L208.753,272.388 Q211.713,275.274 214.932,276.68 Q218.151,278.086 222.295,278.086 Q227.993,278.086 231.545,275.644 Q235.097,273.202 235.097,268.762 Q235.097,266.69 234.209,265.321 Q233.321,263.952 231.619,262.953 Q229.917,261.954 227.401,261.251 Q224.885,260.548 221.703,259.808 Q218.595,259.068 216.301,258.439 Q214.007,257.81 212.49,256.848 Q210.973,255.886 210.196,254.443 Q209.419,253 209.419,250.706 Q209.419,247.82 210.529,245.785 Q211.639,243.75 213.489,242.418 Q215.339,241.086 217.781,240.457 Q220.223,239.828 222.961,239.828 Q227.623,239.828 230.916,241.419 Q234.209,243.01 235.467,245.378 L234.135,245.97 Q232.729,243.676 229.547,242.492 Q226.365,241.308 222.665,241.308 Q220.297,241.308 218.151,241.826 Q216.005,242.344 214.377,243.454 Q212.749,244.564 211.824,246.303 Q210.899,248.042 210.899,250.484 Q210.899,252.408 211.528,253.629 Q212.157,254.85 213.489,255.664 Q214.821,256.478 216.893,257.07 Q218.965,257.662 221.777,258.328 Q225.181,259.142 227.956,259.882 Q230.731,260.622 232.618,261.732 Q234.505,262.842 235.541,264.433 Q236.577,266.024 236.577,268.54 Q236.577,271.056 235.541,273.091 Q234.505,275.126 232.655,276.569 Q230.805,278.012 228.141,278.789 Q225.477,279.566 222.295,279.566 z M263.143,279.566 Q260.553,279.566 258.259,278.789 Q255.965,278.012 253.967,276.717 Q251.969,275.422 250.341,273.683 Q248.713,271.944 247.455,270.02 L247.455,294.588 L245.975,294.588 L245.975,240.42 L247.455,240.42 L247.455,248.56 Q248.639,246.636 250.341,245.045 Q252.043,243.454 254.004,242.27 Q255.965,241.086 258.111,240.457 Q260.257,239.828 262.477,239.828 Q266.547,239.828 269.951,241.567 Q273.355,243.306 275.797,246.118 Q278.239,248.93 279.608,252.482 Q280.977,256.034 280.977,259.734 Q280.977,263.656 279.682,267.245 Q278.387,270.834 276.056,273.572 Q273.725,276.31 270.432,277.938 Q267.139,279.566 263.143,279.566 z M263.143,278.086 Q266.917,278.086 269.914,276.495 Q272.911,274.904 275.057,272.314 Q277.203,269.724 278.35,266.431 Q279.497,263.138 279.497,259.734 Q279.497,256.108 278.165,252.778 Q276.833,249.448 274.539,246.895 Q272.245,244.342 269.137,242.825 Q266.029,241.308 262.477,241.308 Q260.257,241.308 257.667,242.27 Q255.077,243.232 252.857,244.86 Q250.637,246.488 249.12,248.634 Q247.603,250.78 247.455,253.074 L247.455,266.912 Q248.491,269.28 250.119,271.315 Q251.747,273.35 253.782,274.83 Q255.817,276.31 258.185,277.198 Q260.553,278.086 263.143,278.086 z M306.285,279.566 Q302.511,279.566 299.144,277.975 Q295.777,276.384 293.261,273.609 Q290.745,270.834 289.265,267.171 Q287.785,263.508 287.785,259.364 Q287.785,255.294 289.191,251.742 Q290.597,248.19 293.076,245.526 Q295.555,242.862 298.848,241.345 Q302.141,239.828 305.915,239.828 Q309.763,239.828 313.13,241.382 Q316.497,242.936 318.976,245.6 Q321.455,248.264 322.935,251.89 Q324.415,255.516 324.415,259.66 L324.415,260.474 L289.265,260.474 Q289.561,264.174 291.004,267.393 Q292.447,270.612 294.741,272.98 Q297.035,275.348 300.032,276.717 Q303.029,278.086 306.359,278.086 Q308.579,278.086 310.688,277.494 Q312.797,276.902 314.647,275.829 Q316.497,274.756 317.903,273.276 Q319.309,271.796 320.123,270.02 L321.529,270.39 Q320.715,272.388 319.198,274.053 Q317.681,275.718 315.646,276.939 Q313.611,278.16 311.206,278.863 Q308.801,279.566 306.285,279.566 z M322.861,258.994 Q322.639,255.146 321.233,251.89 Q319.827,248.634 317.57,246.303 Q315.313,243.972 312.353,242.64 Q309.393,241.308 305.989,241.308 Q302.585,241.308 299.625,242.64 Q296.665,243.972 294.408,246.34 Q292.151,248.708 290.819,251.964 Q289.487,255.22 289.265,258.994 z M349.649,241.9 Q344.173,242.122 340.214,245.452 Q336.255,248.782 334.701,254.554 L334.701,278.826 L333.221,278.826 L333.221,240.42 L334.701,240.42 L334.701,250.336 Q336.699,246.266 340.066,243.639 Q343.433,241.012 347.207,240.568 Q347.947,240.494 348.576,240.457 Q349.205,240.42 349.649,240.42 z" fill-opacity="0" stroke="#CE93D8" stroke-width="1"/>
      </g>
    </g>
  </g>
</svg>
